<svg width="64" height="64" viewBox="0 0 64 64" fill="none" xmlns="http://www.w3.org/2000/svg">
<path d="M32 25.6C30.7342 25.6 29.4968 25.9754 28.4443 26.6786C27.3919 27.3819 26.5716 28.3814 26.0871 29.5509C25.6027 30.7203 25.476 32.0071 25.723 33.2486C25.9699 34.4901 26.5794 35.6305 27.4745 36.5255C28.3696 37.4206 29.5099 38.0301 30.7514 38.2771C31.9929 38.524 33.2797 38.3973 34.4492 37.9129C35.6186 37.4285 36.6181 36.6082 37.3214 35.5557C38.0246 34.5032 38.4 33.2658 38.4 32C38.4 30.3027 37.7257 28.6748 36.5255 27.4746C35.3252 26.2743 33.6974 25.6 32 25.6Z" fill="#25D695"/>
<path d="M32 6.40004C28.6375 6.3959 25.3073 7.05613 22.2008 8.3428C19.0942 9.62947 16.2724 11.5172 13.8976 13.8976L22.9536 22.9536C24.7432 21.1622 27.0239 19.9419 29.5072 19.4469C31.9905 18.952 34.5648 19.2047 36.9045 20.1732C39.2441 21.1416 41.244 22.7822 42.651 24.8874C44.0581 26.9926 44.8091 29.4679 44.8091 32C44.8091 34.5322 44.0581 37.0075 42.651 39.1127C41.244 41.2179 39.2441 42.8585 36.9045 43.8269C34.5648 44.7954 31.9905 45.0481 29.5072 44.5531C27.0239 44.0582 24.7432 42.8378 22.9536 41.0464L13.8976 50.1024C16.8745 53.0792 20.5396 55.2759 24.5682 56.4979C28.5968 57.7198 32.8646 57.9294 36.9936 57.1081C41.1226 56.2867 44.9853 54.4598 48.2396 51.7891C51.4938 49.1183 54.0392 45.6863 55.6503 41.7969C57.2614 37.9075 57.8884 33.6808 57.4758 29.4911C57.0632 25.3015 55.6238 21.2783 53.285 17.7779C50.9462 14.2775 47.7802 11.4078 44.0675 9.42321C40.3547 7.43858 36.2099 6.4002 32 6.40004V6.40004Z" fill="#25D695"/>
</svg>
