<svg width="18" height="18" viewBox="0 0 18 18" fill="none" xmlns="http://www.w3.org/2000/svg">
<g id="Icon/Delete">
<path id="Vector" fill-rule="evenodd" clip-rule="evenodd" d="M3.01033 4.35351H5.88418V3.49207C5.88418 2.5146 6.68449 1.71429 7.66196 1.71429H10.3394C11.3169 1.71429 12.1172 2.5146 12.1172 3.49207V4.35351H14.9911C15.2418 4.35351 15.4301 4.54183 15.4301 4.79256C15.4301 5.04329 15.2418 5.23161 14.9911 5.23161H14.0297V13.5517C14.0297 15.0647 12.8086 16.2857 11.2957 16.2857H6.70572C5.19276 16.2857 3.97171 15.0647 3.97171 13.5517V5.23161H3.01033C2.75961 5.23161 2.57129 5.04329 2.57129 4.79256C2.57129 4.54183 2.7596 4.35351 3.01033 4.35351ZM6.76227 4.35351H11.2391V3.49207C11.2391 2.99694 10.8346 2.59239 10.3394 2.59239H7.66196C7.16682 2.59239 6.76227 2.99694 6.76227 3.49207V4.35351ZM13.1516 5.23161H4.8498V13.5517C4.8498 14.5823 5.67509 15.4076 6.70572 15.4076H11.2957C12.3263 15.4076 13.1516 14.5823 13.1516 13.5517V5.23161Z" fill="#5E6773"/>
</g>
</svg>
