<svg width="21" height="21" viewBox="0 0 21 21" fill="none" xmlns="http://www.w3.org/2000/svg">
<g id="Icon/Info">
<path id="Outter Circle" d="M3.15769 10.5C3.15769 6.44496 6.44496 3.15769 10.5 3.15769C14.555 3.15769 17.8423 6.44496 17.8423 10.5C17.8423 14.555 14.555 17.8423 10.5 17.8423C6.44496 17.8423 3.15769 14.555 3.15769 10.5ZM10.5 2.15C5.88842 2.15 2.15 5.88842 2.15 10.5C2.15 15.1116 5.88842 18.85 10.5 18.85C15.1116 18.85 18.85 15.1116 18.85 10.5C18.85 5.88842 15.1116 2.15 10.5 2.15Z" fill="#25D695" stroke="#25D695" stroke-width="0.2" stroke-linecap="round"/>
<path id="Vector" d="M10.6166 8.93537C10.6693 8.80013 10.6005 8.72056 10.5419 8.7324C10.2713 8.78744 10.1067 9.14631 9.97244 9.14631C9.91981 9.14631 9.87491 9.09344 9.87491 9.04839C9.87491 8.91284 10.0034 8.83776 10.1005 8.73983C10.3997 8.45396 10.7887 8.23559 11.2228 8.23559C11.5442 8.23559 11.8886 8.43128 11.619 9.16148L10.0445 13.3486C9.99962 13.4614 9.91741 13.6499 9.91741 13.7701C9.91741 13.8227 9.94713 13.8753 10.0072 13.8753C10.2314 13.8753 10.3877 13.514 10.4926 13.514C10.53 13.514 10.582 13.5592 10.582 13.6269C10.582 13.8448 9.96207 14.5 9.2064 14.5C8.9371 14.5 8.75 14.3723 8.75 14.086C8.75 13.7247 9.00444 13.1075 9.05677 12.9795L10.6166 8.93537ZM11.2302 7.10201C11.2302 6.77085 11.5144 6.5 11.8436 6.5C12.1428 6.5 12.3598 6.70304 12.3598 7.01167C12.3598 7.358 12.0756 7.61384 11.7389 7.61384C11.4322 7.61384 11.2302 7.41056 11.2302 7.10201Z" fill="#25D695"/>
</g>
</svg>
